<svg width="25" height="25" viewBox="0 0 50 50" fill="none" xmlns="http://www.w3.org/2000/svg">
<path d="M22.4862 0.0710869C18.0737 0.550869 14.0159 2.08409 10.4901 4.5873C4.93015 8.54029 1.27917 14.475 0.194304 21.338C-0.0664809 23.0172 -0.0664809 26.9389 0.204735 28.639C1.77988 38.7144 9.00883 46.7351 18.7726 49.2384C20.7546 49.7494 22.0689 49.9267 24.3117 49.9893C31.2068 50.1875 37.6952 47.6217 42.577 42.7717C44.705 40.6544 46.0716 38.7457 47.4172 35.9922C50.0981 30.5477 50.7031 24.5817 49.1801 18.6574C48.7629 17.0095 48.2621 15.6953 47.3651 13.8805C43.7141 6.48557 36.9024 1.5313 28.5885 0.21711C27.3368 0.0189362 23.7275 -0.0749321 22.4862 0.0710869ZM27.0864 3.39827C42.0137 4.9002 50.9743 20.6913 44.6007 34.2399C44.1105 35.2934 43.0778 37.0873 42.963 37.0873C42.9421 37.0873 42.4623 36.6806 41.9094 36.1799C41.3461 35.6897 40.449 34.9388 39.8962 34.532C34.7222 30.6624 27.9835 28.931 21.5995 29.8385C16.4777 30.5581 12.0235 32.6546 8.07 36.1904C7.51714 36.6806 7.0373 37.0873 7.01643 37.0873C6.98514 37.0873 6.72435 36.7014 6.44271 36.2217C1.77988 28.4721 2.3536 18.8035 7.9031 11.6276C12.3573 5.8702 19.8053 2.66817 27.0864 3.39827Z" fill="black"/>
<path d="M23.4772 6.73614C21.3388 7.08033 19.4716 8.05033 17.8964 9.64613C16.5508 11.002 15.6746 12.5561 15.2156 14.4127C14.9339 15.56 14.9652 17.9067 15.2677 19.0436C15.7893 20.9419 16.5404 22.2665 17.8443 23.5911C18.8874 24.6445 19.3568 24.9887 20.5669 25.5937C24.3326 27.4815 28.8285 26.7931 31.8954 23.8519C33.2515 22.569 34.1903 20.9523 34.7118 19.054C35.0457 17.865 35.0352 15.4765 34.7118 14.2458C34.1798 12.2954 33.4496 11.0333 32.031 9.6044C30.6227 8.19635 29.3501 7.45581 27.4412 6.94474C26.4815 6.68399 24.4787 6.57969 23.4772 6.73614Z" fill="black"/>
</svg>
