<svg width="27" height="21" viewBox="0 0 27 21" fill="none" xmlns="http://www.w3.org/2000/svg">
<g clip-path="url(#clip0_30_1545)">
<path d="M18.3156 10.4718L25.15 4.23717V16.6353L18.3156 10.4718ZM9.50889 11.5277L11.9089 13.7152C12.2856 14.0512 12.7767 14.2542 13.3133 14.2542H13.3322H13.3311H13.3467C13.8844 14.2542 14.3756 14.05 14.7567 13.7117L14.7533 13.714L17.1533 11.5265L24.4489 18.1053H2.21667L9.50889 11.5277ZM2.20667 2.759H24.4622L13.7722 12.5077C13.652 12.6075 13.5032 12.6618 13.35 12.6617H13.3344H13.3356H13.32C13.1662 12.6619 13.0169 12.6072 12.8967 12.5065L12.8978 12.5077L2.20667 2.759ZM1.51667 4.236L8.35 10.4707L1.51667 16.6307V4.236ZM25.5167 1.38817C25.25 1.24817 24.9367 1.1665 24.6044 1.1665H2.06556C1.74351 1.16658 1.42589 1.24527 1.13778 1.39634L1.15 1.3905C0.805082 1.56913 0.514609 1.84548 0.311394 2.18832C0.108178 2.53117 0.000319276 2.92685 0 3.33067L0 17.5313C0.000588226 18.106 0.21828 18.657 0.605311 19.0634C0.992342 19.4698 1.5171 19.6984 2.06444 19.699H24.6011C25.1485 19.6984 25.6732 19.4698 26.0602 19.0634C26.4473 18.657 26.665 18.106 26.6656 17.5313V3.33067C26.6656 2.4825 26.2 1.7475 25.5222 1.394L25.51 1.38817H25.5167Z" fill="#F16767"/>
</g>
<defs>
<clipPath id="clip0_30_1545">
<rect width="26.6667" height="20" fill="white" transform="translate(0 0.5)"/>
</clipPath>
</defs>
</svg>
