<svg width="26" height="25" viewBox="0 0 26 25" fill="none" xmlns="http://www.w3.org/2000/svg">
<g clip-path="url(#clip0_40_2230)">
<path d="M25.9558 12.5767C25.9558 5.62979 20.199 -0.00146484 13.0986 -0.00146484C5.99507 9.76563e-05 0.238281 5.62979 0.238281 12.5782C0.238281 18.8548 4.94078 24.0579 11.0865 25.0017V16.2126H7.824V12.5782H11.0897V9.80479C11.0897 6.65322 13.0102 4.9126 15.9465 4.9126C17.3544 4.9126 18.8249 5.15791 18.8249 5.15791V8.25166H17.2033C15.6074 8.25166 15.1092 9.22197 15.1092 10.2173V12.5767H18.6738L18.1049 16.211H15.1076V25.0001C21.2533 24.0563 25.9558 18.8532 25.9558 12.5767Z" fill="#F16767"/>
</g>
<defs>
<clipPath id="clip0_40_2230">
<rect width="25.7143" height="25" fill="white" transform="translate(0.242188)"/>
</clipPath>
</defs>
</svg>
