<svg width="15" height="21" viewBox="0 0 15 21" fill="none" xmlns="http://www.w3.org/2000/svg">
<g clip-path="url(#clip0_30_1536)">
<path d="M13.2888 8.42779C13.2888 6.77891 12.6649 5.19756 11.5545 4.03163C10.4441 2.8657 8.93806 2.21068 7.3677 2.21068C5.79734 2.21068 4.2913 2.8657 3.18088 4.03163C2.07047 5.19756 1.44665 6.77891 1.44665 8.42779C1.44665 10.9782 3.39007 14.3023 7.3677 18.284C11.3453 14.3023 13.2888 10.9782 13.2888 8.42779ZM7.3677 20.1712C2.5427 15.5664 0.130859 11.651 0.130859 8.42779C0.130859 6.41249 0.89331 4.47973 2.25048 3.0547C3.60765 1.62968 5.44837 0.829102 7.3677 0.829102C9.28703 0.829102 11.1278 1.62968 12.4849 3.0547C13.8421 4.47973 14.6045 6.41249 14.6045 8.42779C14.6045 11.651 12.1927 15.5664 7.3677 20.1712Z" fill="#F16767"/>
<path d="M7.3676 10.4999C7.89105 10.4999 8.39307 10.2816 8.7632 9.89297C9.13334 9.50432 9.34128 8.97721 9.34128 8.42758C9.34128 7.87795 9.13334 7.35084 8.7632 6.96219C8.39307 6.57355 7.89105 6.35521 7.3676 6.35521C6.84415 6.35521 6.34213 6.57355 5.97199 6.96219C5.60186 7.35084 5.39391 7.87795 5.39391 8.42758C5.39391 8.97721 5.60186 9.50432 5.97199 9.89297C6.34213 10.2816 6.84415 10.4999 7.3676 10.4999ZM7.3676 11.8815C6.49518 11.8815 5.65849 11.5176 5.04159 10.8699C4.42469 10.2221 4.07813 9.34362 4.07812 8.42758C4.07813 7.51154 4.42469 6.63301 5.04159 5.98527C5.65849 5.33753 6.49518 4.97363 7.3676 4.97363C8.24002 4.97363 9.07671 5.33753 9.69361 5.98527C10.3105 6.63301 10.6571 7.51154 10.6571 8.42758C10.6571 9.34362 10.3105 10.2221 9.69361 10.8699C9.07671 11.5176 8.24002 11.8815 7.3676 11.8815Z" fill="#F16767"/>
</g>
<defs>
<clipPath id="clip0_30_1536">
<rect width="14.7368" height="20" fill="white" transform="translate(0 0.5)"/>
</clipPath>
</defs>
</svg>
