<svg width="20" height="21" viewBox="0 0 20 21" fill="none" xmlns="http://www.w3.org/2000/svg">
<g clip-path="url(#clip0_30_1541)">
<path d="M1.60686 3.47443L1.63659 3.45493L5.39496 1.51074L9.45152 7.1899L7.5852 9.80292C7.64105 10.7883 8.03904 11.7181 8.70385 12.4161C9.36865 13.1142 10.2541 13.532 11.1926 13.5907L13.6812 11.631L19.0898 15.8903L17.2536 19.8036L17.2382 19.8367L17.2196 19.8678C17.1216 20.0336 16.9848 20.1703 16.8223 20.2649C16.6598 20.3595 16.4769 20.4088 16.2911 20.4082H15.3213C13.4527 20.4082 11.6024 20.0217 9.87606 19.2709C8.14971 18.5201 6.58112 17.4196 5.25983 16.0322C3.93855 14.6449 2.89045 12.9978 2.17538 11.1852C1.46031 9.37251 1.09227 7.42971 1.09227 5.4677V4.44938C1.09168 4.25427 1.13866 4.06224 1.22873 3.89159C1.3188 3.72093 1.44898 3.57732 1.60686 3.47443V3.47443ZM2.48116 5.4677C2.48116 12.9018 8.24123 18.9499 15.3213 18.9499H16.106L17.3345 16.3311L13.6809 13.4539L11.6467 15.0557H11.4153C10.0298 15.0541 8.70154 14.4755 7.72187 13.4468C6.74219 12.4181 6.19114 11.0235 6.18958 9.56872V9.32568L7.71515 7.18986L4.97522 3.35376L2.48116 4.64397V5.4677Z" fill="#F16767"/>
</g>
<defs>
<clipPath id="clip0_30_1541">
<rect width="20" height="20" fill="white" transform="matrix(-1 0 0 1 20 0.5)"/>
</clipPath>
</defs>
</svg>
