<svg width="34" height="25" viewBox="0 0 34 25" fill="none" xmlns="http://www.w3.org/2000/svg">
<path d="M32.1579 3.30357C31.0396 3.78534 29.8382 4.11086 28.5753 4.258C29.8784 3.49992 30.8533 2.30678 31.3181 0.901228C30.0938 1.60825 28.7539 2.10591 27.3565 2.37258C26.4169 1.39715 25.1722 0.750611 23.8159 0.533356C22.4596 0.316101 21.0674 0.54028 19.8555 1.17109C18.6436 1.8019 17.6799 2.80404 17.1139 4.02194C16.5479 5.23983 16.4113 6.60533 16.7253 7.90644C14.2445 7.78534 11.8176 7.15845 9.60219 6.06647C7.38674 4.97448 5.43221 3.4418 3.86546 1.5679C3.32974 2.46633 3.02171 3.508 3.02171 4.61737C3.02111 5.61607 3.27407 6.59946 3.75815 7.48031C4.24223 8.36115 4.94246 9.11222 5.79671 9.66685C4.80601 9.63621 3.83716 9.37595 2.97081 8.90774V8.98586C2.97071 10.3866 3.46907 11.7442 4.38133 12.8283C5.29358 13.9124 6.56354 14.6563 7.97573 14.9338C7.05669 15.1756 6.09314 15.2112 5.15787 15.0379C5.5563 16.2432 6.33242 17.2971 7.37756 18.0522C8.4227 18.8073 9.68454 19.2257 10.9864 19.2489C8.7764 20.9356 6.047 21.8506 3.23733 21.8465C2.73963 21.8467 2.24235 21.8184 1.74805 21.7619C4.60002 23.5447 7.91993 24.4908 11.3105 24.4872C22.7882 24.4872 29.0628 15.245 29.0628 7.22935C29.0628 6.96894 29.0561 6.70592 29.044 6.4455C30.2645 5.58739 31.318 4.52479 32.1552 3.30748L32.1579 3.30357V3.30357Z" fill="#F16767"/>
</svg>
